<svg xmlns="http://www.w3.org/2000/svg" viewBox="0 0 224.35 328.36"><defs><style>.cls-1{fill:#fff;}</style></defs><title>Asset 17</title><g id="Layer_2" data-name="Layer 2"><g id="Layer_1-2" data-name="Layer 1"><path class="cls-1" d="M106.5,142l6.77,9,6.54-9.14a111.86,111.86,0,0,0,20.66-58.57l0-.25c0-.35,0-.7,0-1.05A112,112,0,0,0,117.84,8.92L111.07,0l-6.51,9.11A111.7,111.7,0,0,0,83.88,67.59c-.1,1.66-.15,3.13-.17,4.5a110.82,110.82,0,0,0,21.81,68.63Zm-6.27-69.67v-.14c0-1.07.06-2.27.14-3.63a94.71,94.71,0,0,1,11.12-39.43A95.49,95.49,0,0,1,124,81.33v.42a1.94,1.94,0,0,1,0,.34v.29a95.64,95.64,0,0,1-11.12,39.45A94.31,94.31,0,0,1,100.23,72.37Z"/><path class="cls-1" d="M220.9,188.68c-.16-.62-.31-1.22-.47-1.83s-.3-1.1-.47-1.65-.33-1.18-.52-1.76c-.35-1.15-.71-2.29-1.09-3.42-.22-.66-.46-1.32-.7-2q-1-2.86-2.22-5.67c-.36-.85-.7-1.64-1.09-2.46a107.63,107.63,0,0,0-7.64-14.07c-1.73,1.81-3.52,3.59-5.38,5.32q-3.44,3.21-7,6.14h0c.14.22.26.43.39.65q2.19,3.77,4,7.68c.58,1.24,1.13,2.49,1.66,3.76a97.42,97.42,0,0,1,3.49,10l.5,1.78c.23.84.44,1.69.64,2.54.16.61.29,1.22.42,1.82s.25,1.09.36,1.64l.35,1.83c.14.72.26,1.43.36,2.15.07.48.15,1,.22,1.47s.13.87.18,1.29c.08.68.17,1.34.23,2,.18,1.56.31,3.13.4,4.68.09,1.2.13,2.41.16,3.61a95.12,95.12,0,0,1-9.3,43.44,206.24,206.24,0,0,0-25.84-9.73c-4.44-1.36-9-2.56-13.52-3.6-2.9-.68-5.85-1.29-8.79-1.82q-3-.58-6.1-1c-1.25-.21-2.51-.39-3.77-.56h0c-1-.13-1.89-.26-2.84-.35l-.83-.11-.73-.09c-.86-.11-1.74-.2-2.58-.28-1.82-.18-3.64-.35-5.43-.49l-.75-.05-.58,0a95,95,0,0,1-.66-43.81,93.49,93.49,0,0,1,5.35-16.75l1.41-.26,1.72-.33c1.83-.36,3.64-.77,5.45-1.24l1.72-.44c.41-.11.82-.22,1.24-.35l1.65-.48c.63-.19,1.28-.38,1.91-.59l1.92-.63c.63-.21,1.26-.43,1.88-.66s1.26-.45,1.89-.69c1.24-.49,2.48-1,3.72-1.49s2.45-1.06,3.66-1.62,2.38-1.13,3.55-1.73c.66-.33,1.31-.67,1.94-1l1.64-.9c.59-.33,1.17-.65,1.75-1,1.15-.66,2.3-1.36,3.42-2.07s2.23-1.43,3.34-2.17l1.79-1.24c1.06-.76,2.12-1.53,3.15-2.33s2.12-1.63,3.16-2.5c.53-.43,1.05-.85,1.56-1.3,1.1-.93,2.19-1.88,3.25-2.87.26-.22.51-.47.77-.7.44-.4.88-.8,1.32-1.22q3.45-3.21,6.58-6.69l-.11-.12.83-1c.12-.16.25-.29.38-.44a.13.13,0,0,0,0-.06c.46-.54.91-1.09,1.37-1.64.33-.4.64-.81,1-1.21l.8-1,0-.06h0c.4-.51.79-1,1.16-1.53l1.12-1.52c.26-.37.53-.75.79-1.14.45-.62.87-1.24,1.3-1.87.23-.33.45-.67.67-1l.54-.83c.36-.54.7-1.08,1-1.63.25-.4.48-.81.73-1.21s.54-.91.81-1.36c.1-.17.2-.33.29-.5.39-.66.75-1.32,1.12-2,.08-.15.16-.3.23-.46s0-.08.07-.12c.25-.45.5-.92.73-1.38.1-.18.19-.34.28-.52.53-1,1.06-2.06,1.55-3.11a111.85,111.85,0,0,0,4.88-12,114.61,114.61,0,0,0,4-15.08l1-5.39,1.07-5.59-3.3.37-7.82.85a111,111,0,0,0-56.91,23.23c-2.55,2-5,4.11-7.41,6.34-1.66,1.57-3.11,3-4.42,4.38a111.47,111.47,0,0,0-29,56.18L114,177.48c-.3.78-.57,1.57-.84,2.35h-1.5c-.55-1.63-1.15-3.26-1.8-4.87l-1-4.93a112,112,0,0,0-5.6-19.35,112.33,112.33,0,0,0-22.65-35.93l-.15-.17c-.25-.26-.5-.54-.76-.78s-.29-.28-.41-.42l-1.47-1.5-1-1-1-1c-.5-.48-1-1-1.53-1.43l-.55-.48c-.83-.73-1.65-1.45-2.48-2.16-.22-.18-.43-.39-.65-.57l-1.11-.89-1-.87-1.64-1.28-.91-.66c-.6-.45-1.19-.91-1.81-1.34-.36-.24-.7-.52-1.06-.77l-1.5-1c-.76-.51-1.53-1-2.3-1.49S57.74,96,57,95.51a.33.33,0,0,1-.13-.07c-.91-.53-1.82-1-2.72-1.57l-1.67-.93c-1.16-.64-2.33-1.24-3.51-1.83l-1.4-.69-1.39-.68-1-.44-2.3-1-1.05-.47c-.45-.19-.92-.36-1.39-.55L39,86.73c-1.26-.48-2.53-1-3.82-1.39l-.25-.1-.15,0c-1.31-.47-2.65-.88-4-1.26h0c-3.42-1-6.9-1.88-10.42-2.57-.35-.07-.69-.14-1-.19S18.43,81,18,81c-.82-.14-1.66-.29-2.5-.42s-1.78-.24-2.67-.35c-.55-.07-1.12-.17-1.68-.22L0,78.73l.41,2.15,1.71,8.85c.61,3.1,1.35,6.17,2.2,9.2a110.2,110.2,0,0,0,6,16.29c.24.49.44,1,.68,1.45a1.16,1.16,0,0,0,.06.15c.39.79.76,1.56,1.15,2.31.13.29.29.56.42.84l.53,1c.15.28.3.59.47.88.37.68.75,1.37,1.14,2.05l.12.22c.13.2.25.42.37.63l.95,1.6.53.85,0,0,.83,1.32c.14.21.28.45.41.65l1.28,1.94a2,2,0,0,0,.2.28.51.51,0,0,0,.11.16.2.2,0,0,0,.05.09l.4.57c.4.58.81,1.16,1.23,1.72.11.17.23.34.35.5l.79,1.05.58.78c.38.51.78,1,1.18,1.52l.19.24c.18.24.37.46.55.69l.36.44c.55.68,1.12,1.35,1.68,2,.3.35.62.7.92,1.06l-.12.13c-.7.8-1.39,1.61-2,2.44.67-.83,1.36-1.62,2.06-2.42.39.44.8.88,1.2,1.31,2.51,2.68,5.14,5.23,7.85,7.62l.41.37c.81.73,1.63,1.45,2.46,2.15h0c.9.78,1.82,1.53,2.73,2.26l1.21.95c1.43,1.12,2.88,2.18,4.34,3.21.87.62,1.75,1.21,2.63,1.8s1.77,1.16,2.68,1.71L55.2,165c.93.55,1.85,1.08,2.77,1.59.56.31,1.12.62,1.69.92A109.19,109.19,0,0,0,71.57,173l2.11.8a115.4,115.4,0,0,0,13.48,3.95l1.94.41c.59.12,1.18.25,1.77.36.92.18,1.85.34,2.78.49A93.21,93.21,0,0,1,99,195.69a95.43,95.43,0,0,1-.67,43.75h0c-.88,0-1.76.11-2.68.2l-1.41.11c-1.18.11-2.35.2-3.42.33s-2.34.24-3.5.4h-.17l-.42.05-2.34.29-.22,0h0A206.9,206.9,0,0,0,26,257.62,95,95,0,0,1,21,245c-.54-1.71-1-3.43-1.49-5.16a95.38,95.38,0,0,1-2.77-29.94c.09-1.41.21-2.8.38-4.19.05-.7.15-1.39.24-2.08a96.66,96.66,0,0,1,3.05-14.37c.19-.67.39-1.35.62-2s.42-1.33.66-2,.45-1.33.7-2c.42-1.19.88-2.34,1.36-3.5.1-.22.19-.44.28-.66.23-.58.48-1.14.74-1.71s.59-1.3.88-1.94c.59-1.28,1.23-2.53,1.9-3.78q.48-1,1-1.89c.33-.62.69-1.22,1.06-1.84.12-.22.26-.44.4-.66l0,0a130.09,130.09,0,0,1-12.34-11.42c-1.57,2.43-3,4.92-4.4,7.46l-.33.63c-.34.66-.68,1.32-1,2-.42.83-.83,1.65-1.22,2.49-.79,1.67-1.54,3.35-2.23,5.06-.35.84-.68,1.69-1,2.56-.68,1.7-1.3,3.43-1.85,5.17-.29.87-.56,1.74-.83,2.62a109.23,109.23,0,0,0-3.57,16A105.16,105.16,0,0,0,.06,213.45c0,1.28,0,2.55,0,3.81v0c0,1.69.08,3.37.18,5.06,0,.44,0,.87.08,1.3.11,1.69.25,3.38.44,5.08l0,.37c.19,1.75.44,3.48.73,5.23.48,3,1.1,6,1.86,9,.3,1.2.62,2.39.95,3.57s.7,2.37,1.07,3.54.79,2.35,1.2,3.51c.63,1.76,1.31,3.49,2,5.23.49,1.14,1,2.3,1.5,3.44,1.57,3.41,3.32,6.79,5.25,10.09l.1.17,3.81,6.54.26-.14A114.5,114.5,0,0,0,30.37,292.8l.15.16c.25.26.5.53.76.77A112,112,0,0,0,188.78,298c1.64-1.55,3.08-3,4.43-4.38a114,114,0,0,0,11.66-14.4l.25.12,3.92-6.69a112.55,112.55,0,0,0,11.86-84ZM135,160.52c.13-.38.27-.75.39-1.12.26-.73.52-1.44.8-2.15.08-.24.18-.49.27-.74.21-.54.44-1.07.66-1.61l.18-.44c.29-.7.61-1.41.91-2.11.22-.49.44-1,.68-1.47.12-.29.26-.56.38-.84.33-.67.66-1.35,1-2,.09-.2.19-.38.29-.57s.12-.23.18-.34c.45-.88.92-1.76,1.43-2.63v0c.53-.95,1.08-1.88,1.65-2.81l0,0a.08.08,0,0,1,0-.07v0a1.08,1.08,0,0,1,.11-.18c.45-.74.92-1.47,1.4-2.2l.22-.33a1.4,1.4,0,0,1,.1-.16.13.13,0,0,1,0,0c.45-.68.93-1.36,1.4-2,0,0,0,0,0,0,.12-.2.25-.38.38-.56l.09-.12s0,0,0-.05l0-.06h0a.83.83,0,0,1,.13-.18l.41-.57c.47-.63.92-1.25,1.4-1.87h0c.76-1,1.53-1.93,2.33-2.89v0a.55.55,0,0,0,.1-.11c.65-.77,1.29-1.53,2-2.27h0a.55.55,0,0,1,.12-.14c.43-.51,1.57-1.79,2.05-2.22l.13-.13v0c.7-.74,1.49-1.53,2.31-2.32.47-.47.95-.93,1.48-1.42a95.62,95.62,0,0,1,21.16-15,93.77,93.77,0,0,1,21.54-8.07c-.83,2.48-1.75,4.93-2.78,7.32-.54,1.3-1.1,2.58-1.71,3.83-.51,1.06-1,2.09-1.57,3.13-.22.4-.42.81-.64,1.21-.51.92-1,1.84-1.55,2.75l-1,1.63c-.34.56-.68,1.11-1,1.66-.23.37-.47.73-.71,1.08-.39.59-.79,1.18-1.19,1.76l-1.07,1.53c-.58.78-1.16,1.57-1.75,2.34l-.87,1.1-1.36,1.65c-.5.59-1,1.18-1.5,1.76s-.91,1-1.38,1.54q-.47.53-.93,1c-.67.7-1.34,1.41-2,2.09-.18.17-.34.36-.52.53l0,0-.9.87c-.15.15-.29.3-.45.44l-.48.45-1.79,1.64-1,.88c-.47.43-.95.83-1.43,1.21s-.91.76-1.37,1.12a2,2,0,0,1-.26.2c-.42.36-.85.69-1.29,1a5.41,5.41,0,0,1-.61.46c-.48.37-1,.74-1.46,1.08q-1.22.91-2.46,1.74c-.37.26-.76.52-1.14.77l-1.82,1.17c-.87.55-1.74,1.07-2.62,1.58s-1.54.88-2.31,1.31a3.24,3.24,0,0,1-.37.19c-.9.5-1.79,1-2.7,1.41s-1.83.89-2.75,1.32q-2.78,1.27-5.62,2.37-1,.39-2,.75a1.32,1.32,0,0,1-.3.1c-.38.15-.77.29-1.16.41q-1.12.39-2.28.75l-2.36.69c-.31.09-.64.19-1,.27-.61.18-1.21.33-1.82.48l-.76.18C134.87,161,135,160.78,135,160.52Zm-48.58,0c-1-.28-2.08-.58-3.09-.91l-.28-.09c-.94-.29-1.86-.6-2.78-.93s-2-.72-3-1.12-2-.78-3-1.21-1.81-.8-2.71-1.22l-.41-.2c-.91-.42-1.8-.86-2.68-1.33s-1.9-1-2.84-1.52-1.86-1.06-2.78-1.62-1.72-1.05-2.58-1.6l-.16-.11c-.9-.58-1.79-1.18-2.67-1.81S55.8,145.61,55,145l-.21-.15L52.44,143c-.91-.74-1.81-1.49-2.7-2.26l-1.82-1.62-.51-.47-.52-.5c-.65-.6-1.3-1.22-1.94-1.85-.2-.18-.4-.39-.59-.58-.5-.5-1-1-1.55-1.57a6.14,6.14,0,0,0-.42-.47q-3-3.18-5.62-6.59a94.75,94.75,0,0,1-10.88-17.54v0c-1.3-2.72-2.47-5.52-3.52-8.38-.32-.88-.62-1.78-.92-2.67a97,97,0,0,1,21.49,8.08,96.62,96.62,0,0,1,9.44,5.62,94.12,94.12,0,0,1,15.53,13.12l.19.19.09.08c.09.08.17.19.27.29l.18.19c.34.37.67.76,1,1.13s.74.81,1.11,1.23c.13.15.25.3.39.45l.32.37c.42.5.85,1,1.26,1.52.1.11.18.23.28.34a.19.19,0,0,1,.08.1l.22.27c.51.62,1,1.26,1.49,1.89a.76.76,0,0,0,.08.11c.15.18.27.36.41.54,0,0,0,.06.07.09.55.73,1.09,1.48,1.61,2.23l.13.17.12.18c.43.57.81,1.17,1.2,1.76a.55.55,0,0,1,.09.14c.28.42.57.84.83,1.26,0,0,0,.06.05.09.24.35.45.71.68,1.07s.45.74.69,1.11q.62,1,1.2,2.07l.37.65.35.64c.16.28.31.57.45.84a2,2,0,0,1,.11.2l.26.49c.07.11.12.24.19.35a.07.07,0,0,0,0,.06c.25.47.48.94.71,1.41s.42.84.62,1.27.47,1,.69,1.47.48,1.07.73,1.62c.06.14.12.29.19.44.24.53.44,1.05.65,1.57.15.35.29.7.44,1.06s.22.57.33.84c.39,1,.74,2,1.08,3a3.16,3.16,0,0,1,.12.37,3,3,0,0,1,.12.36.67.67,0,0,0,.06.15c0,.11.07.24.11.35C88.53,161,87.49,160.78,86.45,160.48ZM181.29,282.2c-1.16,1.2-2.41,2.45-3.83,3.77a93.65,93.65,0,0,1-16,12.11A95.42,95.42,0,0,1,43.12,282.21l-.31-.29-.23-.25-.19-.2a96.1,96.1,0,0,1-7.81-9.56,189.42,189.42,0,0,1,51.71-14.66h0l.19,0c.71-.1,1.42-.2,2.13-.28l.25,0,.48-.05c1-.13,2-.25,3.15-.36s2.07-.21,3.06-.29l1.6-.14,2-.15,1.44-.08,1.23-.07.77,0c.6,0,1.18-.07,1.77-.08l.51,0,2.76-.09,1,0c1.06,0,2.12,0,3.18,0h.4c1.24,0,2.49,0,3.74,0h.33l.59,0c1,0,2,.05,3,.1H120l.94,0,.8,0h.45l2.23.14h.16l1.41.1.6,0c1.68.14,3.36.27,5.1.45l2.31.26.54.06c.22,0,.44.05.66.08l.47.06,1.3.16.13,0,1,.13a190.39,190.39,0,0,1,51.75,14.66A95.24,95.24,0,0,1,181.29,282.2Z"/></g></g></svg>